<svg id="visual" viewBox="0 0 900 900" width="900" height="900" xmlns="http://www.w3.org/2000/svg" xmlns:xlink="http://www.w3.org/1999/xlink" version="1.1"><rect x="0" y="0" width="900" height="900" fill="#002233"></rect><path d="M0 730L37.5 736C75 742 150 754 225 741.2C300 728.3 375 690.7 450 650.2C525 609.7 600 566.3 675 570C750 573.7 825 624.3 862.5 649.7L900 675L900 901L862.5 901C825 901 750 901 675 901C600 901 525 901 450 901C375 901 300 901 225 901C150 901 75 901 37.5 901L0 901Z" fill="#0066FF" stroke-linecap="round" stroke-linejoin="miter"></path></svg>